<svg width="632" height="821" viewBox="0 0 632 821" fill="none" xmlns="http://www.w3.org/2000/svg">
<g clip-path="url(#clip0_1_2)">
<mask id="mask0_1_2" style="mask-type:luminance" maskUnits="userSpaceOnUse" x="0" y="0" width="632" height="821">
<path d="M0 0H632V821H0V0Z" fill="white"/>
</mask>
<g mask="url(#mask0_1_2)">
<path d="M426 589.72C516.76 589.72 498 703.96 498.87 831H426V589.72Z" fill="#FDD2B2"/>
<path d="M448.74 662.87L426 701L437.38 831H469.14C469.91 650.73 448.74 662.87 448.74 662.87Z" fill="#F3AB98"/>
<path d="M49.25 331C49.25 183.68 168.68 64.25 316 64.25C463.32 64.25 582.75 183.68 582.75 331C582.788 370.694 573.95 409.895 556.881 445.732C539.812 481.569 514.945 513.135 484.1 538.12C478.625 542.574 472.974 546.808 467.16 550.81C407 589 331 589 262.39 582.89C255.73 581.89 249.09 580.63 242.5 579.18C216.17 573.38 190.68 564.43 167.13 551.38C161.3 547.786 155.65 543.908 150.2 539.76C144.706 535.576 139.432 531.11 134.4 526.38C129.636 521.957 125.037 517.36 120.61 512.6C74.667 463.299 49.161 398.39 49.25 331Z" fill="#FDD2B2"/>
<path d="M85.61 465.48C86.31 466.68 87 467.88 87.72 469.06C88.15 469.78 88.6 470.48 89.05 471.2C89.71 472.27 90.37 473.34 91.05 474.39C91.53 475.15 92.05 475.89 92.51 476.63C93.17 477.63 93.83 478.63 94.51 479.63C95.02 480.39 95.51 481.15 96.07 481.91C96.73 482.91 97.39 483.83 98.07 484.79C98.61 485.56 99.17 486.32 99.72 487.09C100.27 487.86 101.06 488.94 101.72 489.86C102.38 490.78 102.87 491.39 103.45 492.15C104.03 492.91 104.82 493.95 105.52 494.85C106.22 495.75 106.71 496.36 107.31 497.11C107.91 497.86 108.72 498.87 109.43 499.74C110.14 500.61 110.66 501.23 111.28 501.97C111.9 502.71 112.72 503.69 113.45 504.54C114.18 505.39 114.72 506.01 115.36 506.74L117.58 509.24C118.23 509.97 118.89 510.68 119.58 511.4C120.44 512.34 121.31 513.27 122.18 514.19L123.39 515.47C124.68 516.81 125.98 518.15 127.3 519.47L127.56 519.74C128.85 521.02 130.16 522.29 131.47 523.55L133.05 525.05C134 525.94 134.95 526.83 135.91 527.71L137.07 528.77C138.07 529.71 139.16 530.63 140.21 531.55C143.477 534.397 146.81 537.127 150.21 539.74C155.657 543.891 161.308 547.769 167.14 551.36C190.69 564.36 216.14 573.36 242.51 579.16C249.1 580.61 255.74 581.86 262.4 582.87C304.5 586.62 349.4 588.05 391.68 579.79C324.45 560 1.59001 443.74 204.8 88.48C202.08 89.73 199.4 91.02 196.74 92.36L196.15 92.65C194.93 93.26 193.71 93.89 192.5 94.53L191.5 95.06C187.74 97.06 184.02 99.13 180.37 101.29L179.47 101.82C178.31 102.51 177.16 103.21 176.01 103.92L175.14 104.46C171.571 106.69 168.054 109.001 164.59 111.39L163.51 112.14C162.42 112.9 161.35 113.66 160.28 114.43L159.62 114.9C157.448 116.488 155.294 118.101 153.16 119.74L152.54 120.22C151.54 121 150.54 121.8 149.54 122.61L148.37 123.55C147.37 124.36 146.37 125.17 145.37 126C143.26 127.75 141.18 129.55 139.13 131.37L137.99 132.37L135.3 134.82L134 136C131.151 138.663 128.361 141.387 125.63 144.17L124.25 145.58C123.46 146.4 122.67 147.22 121.89 148.05C121.43 148.54 120.97 149.05 120.52 149.53C119.146 150.998 117.792 152.484 116.46 153.99C116.01 154.5 115.55 154.99 115.1 155.53C114.39 156.34 113.69 157.16 112.99 157.98L111.48 159.77C110.8 160.58 110.12 161.39 109.48 162.21C108.94 162.87 108.4 163.54 107.87 164.21C106.8 165.54 105.75 166.87 104.71 168.21C104.17 168.91 103.63 169.61 103.1 170.32C102.57 171.03 101.9 171.91 101.31 172.72C100.72 173.53 100.24 174.17 99.72 174.9C99.2 175.63 98.59 176.45 98.04 177.23C97.0897 178.568 96.1563 179.918 95.24 181.28C94.74 182.01 94.24 182.76 93.75 183.5C93.26 184.24 92.65 185.16 92.11 186L90.62 188.31L88.94 191.02C88.51 191.71 88.08 192.4 87.66 193.09C86.77 194.55 85.91 196.02 85.05 197.49L83.83 199.65C83.29 200.6 82.75 201.56 82.22 202.52C81.82 203.25 81.42 203.98 81.03 204.71C80.39 205.9 79.76 207.1 79.13 208.3L77.93 210.64C77.29 211.92 76.65 213.19 76.02 214.48C75.69 215.17 75.35 215.87 75.02 216.57C74.5 217.66 74.02 218.76 73.49 219.86C73.18 220.52 72.88 221.18 72.58 221.86C71.8354 223.517 71.112 225.184 70.41 226.86C70.19 227.38 69.98 227.91 69.76 228.43C69.23 229.7 68.71 230.97 68.2 232.25C67.93 232.92 67.67 233.59 67.41 234.25C66.91 235.51 66.41 236.78 65.96 238.05C65.75 238.6 65.54 239.15 65.34 239.7C64.7144 241.45 64.0978 243.204 63.49 244.96L62.93 246.66C62.49 247.993 62.06 249.327 61.64 250.66L61.04 252.57C60.57 254.11 60.11 255.65 59.67 257.2C59.57 257.53 59.47 257.86 59.38 258.2C58.86 260.04 58.36 261.887 57.88 263.74C57.72 264.33 57.58 264.93 57.43 265.52C57.08 266.91 56.74 268.3 56.43 269.7L56.01 271.45C55.58 273.35 55.16 275.25 54.77 277.16L54.62 277.93C54.28 279.63 53.947 281.33 53.62 283.03C53.51 283.64 53.41 284.24 53.3 284.85C53.04 286.34 52.79 287.85 52.56 289.35C52.48 289.86 52.39 290.35 52.32 290.87C52.02 292.82 51.75 294.78 51.49 296.75L51.34 298.05C51.14 299.64 50.96 301.24 50.79 302.84C50.73 303.44 50.66 304.04 50.6 304.65C50.44 306.33 50.29 308.02 50.15 309.71C50.15 310.06 50.09 310.4 50.07 310.71C49.923 312.71 49.793 314.727 49.68 316.76C49.68 317.29 49.68 317.83 49.61 318.36C49.5434 319.93 49.4834 321.5 49.43 323.07V324.84C49.43 326.89 49.35 328.95 49.35 331.01V331.11C49.35 333.33 49.35 335.53 49.43 337.73C49.43 338.49 49.49 339.25 49.51 340.01C49.56 341.48 49.61 342.95 49.68 344.42C49.68 345.31 49.79 346.19 49.84 347.08C49.92 348.41 49.99 349.74 50.09 351.08C50.16 352.08 50.25 352.97 50.33 353.91C50.44 355.17 50.54 356.43 50.67 357.68C50.76 358.68 50.88 359.62 50.98 360.59C51.12 361.8 51.25 363.02 51.4 364.23C51.52 365.23 51.66 366.23 51.79 367.18C51.95 368.36 52.11 369.55 52.29 370.73C52.44 371.73 52.6 372.73 52.76 373.73C52.94 374.89 53.13 376.06 53.33 377.22C53.51 378.22 53.69 379.22 53.88 380.22C54.09 381.37 54.31 382.52 54.53 383.66C54.75 384.8 54.94 385.66 55.15 386.66C55.39 387.8 55.63 388.93 55.89 390.06C56.15 391.19 56.33 392.06 56.57 392.99C56.83 394.12 57.11 395.24 57.39 396.35C57.67 397.46 57.88 398.3 58.13 399.26C58.43 400.38 58.73 401.49 59.04 402.6C59.3 403.6 59.57 404.52 59.85 405.47C60.17 406.58 60.5 407.68 60.85 408.78C61.2 409.88 61.43 410.67 61.73 411.62C62.3736 413.654 63.0403 415.681 63.73 417.7C64.11 418.79 64.49 419.88 64.88 420.97C65.21 421.88 65.53 422.8 65.88 423.71L67.12 426.98C67.47 427.87 67.81 428.77 68.12 429.66C68.56 430.75 69.01 431.85 69.46 432.94C69.82 433.8 70.17 434.67 70.54 435.53C71.01 436.65 71.54 437.75 71.99 438.86C72.36 439.68 72.72 440.51 73.09 441.33C73.61 442.49 74.16 443.63 74.69 444.77L75.77 447.07C76.38 448.33 77.01 449.57 77.64 450.82C77.96 451.45 78.26 452.09 78.59 452.72C80.51 456.46 82.51 460.15 84.59 463.79C84.88 464.26 85.25 464.87 85.61 465.48Z" fill="#F3AB98"/>
<path d="M49.25 331C49.25 183.68 168.68 64.25 316 64.25C463.32 64.25 582.75 183.68 582.75 331C582.788 370.694 573.95 409.895 556.881 445.732C539.812 481.569 514.945 513.135 484.1 538.12C478.625 542.574 472.974 546.808 467.16 550.81C407 589 331 589 262.39 582.89C255.73 581.89 249.09 580.63 242.5 579.18C216.17 573.38 190.68 564.43 167.13 551.38C161.3 547.786 155.65 543.908 150.2 539.76C144.706 535.576 139.432 531.11 134.4 526.38C129.636 521.957 125.037 517.36 120.61 512.6C74.667 463.299 49.161 398.39 49.25 331Z" stroke="#592D3D" stroke-width="12" stroke-miterlimit="10"/>
<path d="M202.12 589.72C111.35 589.72 130.12 703.96 129.25 831H202.12V589.72Z" fill="#FDD2B2"/>
<path d="M183.23 662.87L206 701L194.61 831H162.88C162.07 650.73 183.23 662.87 183.23 662.87Z" fill="#F3AB98"/>
<path d="M435.47 901H196.53C193.01 900.997 189.635 899.596 187.147 897.106C184.658 894.616 183.261 891.24 183.26 887.72V603C183.261 599.48 184.658 596.104 187.147 593.614C189.635 591.124 193.01 589.723 196.53 589.72H429.76C442.85 589.72 448.76 597.38 448.76 609.6V887.68C448.766 890.313 447.991 892.888 446.532 895.079C445.072 897.27 442.995 898.979 440.564 899.988C438.949 900.657 437.218 901.001 435.47 901Z" fill="#FDD2B2"/>
<path d="M445.05 597.62C444.053 596.394 443.21 595.051 442.54 593.62C440.139 591.738 437.282 590.527 434.26 590.11C432.771 589.879 431.267 589.766 429.76 589.77H196.53C193.018 589.773 189.651 591.167 187.164 593.646C184.678 596.125 183.274 599.489 183.26 603C212.26 613.42 266.55 619.24 316 619.24C379.06 619.24 420.38 609.89 445.05 597.62Z" fill="#F3AB98"/>
<path d="M202.12 589.72C111.35 589.72 130.12 703.96 129.25 831H179.32M426 589.72C516.76 589.72 498 703.96 498.87 831H448.74L426 589.72Z" stroke="#592D3D" stroke-width="12" stroke-miterlimit="10" stroke-linecap="square"/>
<path d="M196.53 589.82L429.76 589.72" stroke="#592D3D" stroke-width="12" stroke-miterlimit="10"/>
<path d="M196.53 901H313.15C204 901 212.24 669.82 183.26 669.82V887.68C183.255 889.426 183.595 891.157 184.259 892.772C184.924 894.387 185.9 895.855 187.132 897.093C188.365 898.33 189.829 899.312 191.442 899.983C193.054 900.653 194.784 900.999 196.53 901Z" fill="#F3AB98"/>
<path d="M177.26 691.85C177.07 688.18 177.15 684.51 177.31 680.85C177.47 677.19 177.78 673.5 178.17 669.85C178.37 668.01 178.57 666.18 178.82 664.34C179.07 662.5 179.31 660.67 179.67 658.83C180.379 655.022 181.586 651.323 183.26 647.83C184.934 651.323 186.141 655.022 186.85 658.83C187.21 660.67 187.47 662.5 187.7 664.34C187.93 666.18 188.15 668.01 188.35 669.85C188.73 673.52 189.03 677.19 189.2 680.85C189.37 684.51 189.45 688.19 189.26 691.85H177.26Z" fill="#592D3D"/>
<path d="M448.74 701V709C449 743 449 778 448.74 811.75V887.69C448.744 889.436 448.404 891.165 447.74 892.779C447.075 894.394 446.098 895.861 444.865 897.097C443.633 898.333 442.169 899.315 440.556 899.984C438.944 900.654 437.216 900.999 435.47 901H196.53C193.01 900.997 189.635 899.596 187.147 897.106C184.658 894.616 183.261 891.24 183.26 887.72V821.87C183.01 787 183.01 752 183.26 716.57V691.85" stroke="#592D3D" stroke-width="12" stroke-miterlimit="10"/>
<path d="M442.74 701C442.55 696.83 442.64 692.65 442.8 688.47C442.96 684.29 443.27 680.12 443.65 675.94C443.85 673.85 444.06 671.76 444.3 669.67C444.54 667.58 444.79 665.5 445.15 663.41C445.847 659.106 447.052 654.9 448.74 650.88C450.428 654.9 451.633 659.106 452.33 663.41C452.69 665.5 452.95 667.59 453.18 669.67C453.41 671.75 453.63 673.85 453.83 675.94C454.21 680.12 454.52 684.29 454.68 688.47C454.84 692.65 454.93 696.83 454.74 701H442.74ZM386.68 673.45C386.9 664 398.9 660 404.9 666C405.875 666.995 406.645 668.173 407.164 669.466C407.685 670.759 407.946 672.141 407.931 673.535C407.917 674.928 407.628 676.305 407.081 677.587C406.258 679.518 404.881 681.161 403.124 682.309C401.367 683.457 399.309 684.058 397.21 684.035C394.396 684.005 391.709 682.86 389.74 680.85C388.766 679.88 387.994 678.727 387.469 677.457C386.944 676.186 386.675 674.825 386.68 673.45ZM224.11 673.15C223.9 665 232.9 661 238.9 664C246.9 667 246.9 678 238.9 683C234.9 685 230.9 683 227.15 680.52C226.183 679.552 225.417 678.403 224.895 677.138C224.374 675.873 224.107 674.518 224.11 673.15Z" fill="#592D3D"/>
<path d="M316 662.77C316.715 664.655 317.218 666.614 317.5 668.61C317.798 670.543 317.961 672.494 317.99 674.45L318.29 686.14C318.38 690.03 318.5 693.93 318.54 697.83L318.71 709.5C318.94 725.07 318.93 740.66 318.99 756.24C319.05 771.82 319.17 787.4 318.99 802.98C318.9 810.77 318.69 818.56 318.46 826.35C318.36 830.24 318.17 834.14 317.79 838.03C317.45 841.961 316.859 845.865 316.02 849.72C315.181 845.865 314.59 841.961 314.25 838.03C313.87 834.14 313.68 830.24 313.58 826.35C313.35 818.56 313.14 810.77 313.05 802.98C312.85 787.4 313.05 771.82 313.05 756.24C313.05 740.66 313.05 725.09 313.23 709.51L313.4 697.81L313.73 686.13L314.06 674.45C314.097 672.494 314.264 670.543 314.56 668.61C314.822 666.616 315.305 664.657 316 662.77Z" fill="#F3AB98"/>
<path d="M241.22 714C242.703 713.295 244.274 712.791 245.89 712.5C247.434 712.21 248.999 712.043 250.57 712L259.92 711.67L278.62 711.26C291.08 711.07 303.53 711.02 316 710.99C328.47 710.96 340.93 710.83 353.39 710.99C359.62 711.08 365.85 711.29 372.09 711.52C375.2 711.63 378.32 711.82 381.43 712.19C384.588 712.54 387.714 713.135 390.78 713.97C387.716 714.81 384.589 715.402 381.43 715.74C378.32 716.12 375.2 716.31 372.09 716.41C365.85 716.64 359.62 716.84 353.39 716.93C340.93 717.12 328.47 716.93 316 716.93C303.53 716.93 291.07 716.93 278.6 716.78C272.37 716.72 266.14 716.52 259.92 716.28L250.57 715.94C249.003 715.898 247.441 715.731 245.9 715.44C244.283 715.17 242.709 714.686 241.22 714ZM258.41 745.38C259.591 744.817 260.853 744.442 262.15 744.27C263.349 744.101 264.561 744.05 265.77 744.12C268.16 744.22 270.55 744.28 272.94 744.33C277.72 744.44 282.5 744.48 287.28 744.5C296.91 744.5 306.37 744.58 316.04 744.29C325.71 744 335.3 743.86 344.92 743.9C349.73 743.9 354.54 744.03 359.34 744.14C361.756 744.172 364.17 744.329 366.57 744.61C369.037 744.882 371.472 745.395 373.84 746.14C371.527 747.048 369.128 747.718 366.68 748.14C364.296 748.569 361.888 748.857 359.47 749C354.65 749.35 349.83 749.65 345.02 749.82C335.38 750.18 325.75 750.14 316.14 750.27C311.33 750.27 306.53 750.49 301.66 750.37C296.79 750.25 291.97 750.24 287.14 750.06C282.31 749.88 277.46 749.48 272.64 748.98C270.22 748.71 267.82 748.41 265.41 748.08C264.193 747.931 262.996 747.649 261.84 747.24C260.599 746.82 259.439 746.191 258.41 745.38ZM254.93 780.87C256.116 780.172 257.406 779.666 258.75 779.37C260.004 779.079 261.283 778.914 262.57 778.88L270.2 778.56C275.29 778.38 280.39 778.23 285.48 778.15C295.66 778 305.84 778 316 778C326.16 778 336.36 777.83 346.54 778C351.63 778.09 356.72 778.3 361.81 778.53C364.363 778.616 366.91 778.836 369.44 779.19C372.045 779.547 374.61 780.154 377.1 781C374.619 781.831 372.064 782.423 369.47 782.77C366.937 783.132 364.387 783.356 361.83 783.44C356.74 783.67 351.65 783.88 346.56 783.97C336.38 784.17 326.19 784.03 316.01 783.97C305.83 783.91 295.65 783.91 285.47 783.72C280.38 783.62 275.28 783.44 270.19 783.23L262.56 782.86C261.273 782.821 259.994 782.653 258.74 782.36C257.399 782.07 256.112 781.567 254.93 780.87ZM493.8 737.35C494.01 700.24 492.59 667.28 486.07 641.96C476 616.6 457.89 601.48 426 601.48L448.79 736C448.79 736 471.31 746.24 493.8 737.35Z" fill="#F3AB98"/>
<path d="M502.41 726.79C501.269 727.732 500.028 728.547 498.71 729.22" stroke="#592D3D" stroke-width="12" stroke-miterlimit="10" stroke-linecap="square"/>
<path d="M142.11 640.88C135.28 666.45 134.11 700.01 134.37 737.88C154.27 746.42 184.79 735.73 184.79 735.73L202.12 603.49C171.25 603.46 152.85 617.36 142.11 640.88Z" fill="#F3AB98"/>
<path d="M429.76 589.72H375.55V589.82C375.551 594.322 375.069 598.811 374.11 603.21C373.644 605.35 373.063 607.463 372.37 609.54C370.157 615.744 366.761 621.46 362.37 626.37C360.968 627.943 359.465 629.423 357.87 630.8C332.7 649 292.7 650 268.39 630.22C265.771 627.932 263.389 625.386 261.28 622.62C256.902 616.87 253.799 610.253 252.18 603.21C251.706 601.034 251.349 598.834 251.11 596.62C250.86 594.362 250.737 592.092 250.74 589.82V589.72H196.53C193.01 589.723 189.635 591.124 187.147 593.614C184.658 596.104 183.261 599.48 183.26 603V887.68C183.255 889.426 183.595 891.157 184.259 892.772C184.924 894.387 185.9 895.855 187.132 897.093C188.365 898.33 189.829 899.312 191.442 899.983C193.054 900.653 194.784 900.999 196.53 901H435.47C438.99 900.997 442.365 899.596 444.853 897.106C447.342 894.616 448.739 891.24 448.74 887.72V609.6C448.74 597.38 442.85 589.72 429.76 589.72Z" fill="#D67070"/>
<path d="M426 589.72C489.54 589.72 499.4 645.72 499.9 722.89C481.3 734.51 450.99 724.2 450.99 724.2L426 589.72Z" fill="#D67070"/>
<path d="M448.74 662.87L426 701L437.38 831H448.99V725.35L466.27 728.24C460.6 656.07 448.74 662.87 448.74 662.87Z" fill="#C46565"/>
<path d="M202.12 589.72C140.34 589.72 126.29 643.52 125.27 717.38C144.27 737.24 183.27 721.96 183.27 721.96L202.12 589.72Z" fill="#D67070"/>
<path d="M183.23 662.87V722L165.92 726.31C171.59 656.19 183.23 662.87 183.23 662.87Z" fill="#C46565"/>
<path d="M202.12 589.72C135.33 589.72 122.04 644.42 121.36 720.44C142 735.22 183.22 722 183.22 722M426 589.72C493.41 589.72 504.45 646.01 504.9 723.5C478.7 735.93 450.99 724.2 450.99 724.2L426 589.72Z" stroke="#592D3D" stroke-width="12" stroke-miterlimit="10" stroke-linecap="square"/>
<path d="M196.53 901H313.15C204 901 212.24 669.82 183.26 669.82V887.68C183.255 889.426 183.595 891.157 184.259 892.772C184.924 894.387 185.9 895.855 187.132 897.093C188.365 898.33 189.829 899.312 191.442 899.983C193.054 900.653 194.784 900.999 196.53 901Z" fill="#C46565"/>
<path d="M177.26 691.85C177.07 688.18 177.15 684.51 177.31 680.85C177.47 677.19 177.78 673.5 178.17 669.85C178.37 668.01 178.57 666.18 178.82 664.34C179.07 662.5 179.31 660.67 179.67 658.83C180.379 655.022 181.586 651.323 183.26 647.83C184.935 651.322 186.139 655.021 186.84 658.83C187.21 660.67 187.47 662.5 187.7 664.34C187.93 666.18 188.15 668.01 188.35 669.85C188.73 673.52 189.03 677.19 189.2 680.85C189.37 684.51 189.45 688.19 189.26 691.85H177.26Z" fill="#592D3D"/>
<path d="M448.74 701V709C449 743 449 778 448.74 811.75V887.69C448.744 889.436 448.404 891.165 447.74 892.779C447.075 894.394 446.098 895.861 444.865 897.097C443.633 898.333 442.169 899.315 440.556 899.984C438.944 900.654 437.216 900.999 435.47 901H196.53C193.01 900.997 189.635 899.596 187.147 897.106C184.658 894.616 183.261 891.24 183.26 887.72V821.87C183.01 787 183.01 752 183.26 716.57V691.85" stroke="#592D3D" stroke-width="12" stroke-miterlimit="10"/>
<path d="M442.74 701C442.55 696.83 442.64 692.65 442.8 688.47C442.96 684.29 443.27 680.12 443.65 675.94C443.85 673.85 444.06 671.76 444.3 669.67C444.54 667.58 444.79 665.5 445.16 663.41C445.848 659.105 447.05 654.899 448.74 650.88C450.428 654.9 451.633 659.106 452.33 663.41C452.69 665.5 452.95 667.59 453.18 669.67C453.41 671.75 453.63 673.85 453.83 675.94C454.21 680.12 454.52 684.29 454.68 688.47C454.84 692.65 454.93 696.83 454.74 701H442.74Z" fill="#592D3D"/>
<path d="M375.55 589.82C375.551 594.322 375.069 598.811 374.11 603.21C373.644 605.35 373.063 607.463 372.37 609.54C370.157 615.744 366.761 621.46 362.37 626.37C360.968 627.943 359.465 629.423 357.87 630.8C332.7 649 292.7 650 268.39 630.22C265.771 627.932 263.389 625.386 261.28 622.62C256.902 616.87 253.799 610.253 252.18 603.21C251.706 601.034 251.349 598.834 251.11 596.62C250.86 594.362 250.737 592.092 250.74 589.82M196.53 589.82L429.76 589.72" stroke="#592D3D" stroke-width="12" stroke-miterlimit="10"/>
<path d="M319.4 659.39C313.351 660.607 307.161 660.977 301.01 660.49C294.803 660.054 288.682 658.789 282.81 656.73C276.903 654.705 271.339 651.792 266.31 648.09L264.45 646.68C263.84 646.2 263.25 645.68 262.66 645.16C261.472 644.149 260.359 643.053 259.33 641.88C257.277 639.573 255.474 637.056 253.95 634.37C256.09 636.515 258.339 638.548 260.69 640.46C261.27 640.94 261.86 641.41 262.44 641.86C263.02 642.31 263.67 642.68 264.28 643.1C264.89 643.52 265.5 643.94 266.13 644.33L268.04 645.49C273.142 648.512 278.536 651.012 284.14 652.95C289.755 654.914 295.526 656.402 301.39 657.4C307.355 658.376 313.366 659.04 319.4 659.39Z" fill="#592D3D"/>
<path d="M123.83 723.5C124.967 724.537 126.199 725.464 127.51 726.27" stroke="#592D3D" stroke-width="12" stroke-miterlimit="10" stroke-linecap="square"/>
<path d="M490.7 713.69C488.619 714.935 486.328 715.789 483.94 716.21C481.569 716.676 479.156 716.894 476.74 716.86C474.328 716.813 471.925 716.548 469.56 716.07C468.38 715.86 467.23 715.51 466.07 715.2C464.91 714.89 463.8 714.43 462.7 713.96C463.91 713.96 465.08 714.14 466.26 714.24L469.78 714.53C470.95 714.53 472.11 714.73 473.28 714.74C474.45 714.75 475.6 714.85 476.76 714.86C479.093 714.9 481.427 714.837 483.76 714.67C486.094 714.508 488.413 714.181 490.7 713.69Z" fill="#592D3D"/>
<path d="M157.06 421.04C168.636 421.04 178.02 411.656 178.02 400.08C178.02 388.504 168.636 379.12 157.06 379.12C145.484 379.12 136.1 388.504 136.1 400.08C136.1 411.656 145.484 421.04 157.06 421.04Z" fill="#592D3D"/>
<path d="M156.93 417C158.72 416.9 160.72 416.74 162.63 416.54C164.54 416.34 166.49 416.1 168.42 415.8C170.35 415.5 172.29 415.15 174.23 414.8C176.17 414.45 178.15 414.12 180.23 413.97C178.597 415.227 176.813 416.275 174.92 417.09C173.037 417.877 171.107 418.545 169.14 419.09C167.17 419.665 165.166 420.119 163.14 420.45C161.08 420.81 158.992 420.991 156.9 420.99L156.93 417ZM477.77 421.04C489.346 421.04 498.73 411.656 498.73 400.08C498.73 388.504 489.346 379.12 477.77 379.12C466.194 379.12 456.81 388.504 456.81 400.08C456.81 411.656 466.194 421.04 477.77 421.04Z" fill="#592D3D"/>
<path d="M477.77 417C479.57 416.9 481.56 416.74 483.47 416.54C485.38 416.34 487.34 416.1 489.27 415.8C491.2 415.5 493.14 415.15 495.08 414.8C497.02 414.45 499 414.12 501.08 413.97C499.445 415.225 497.662 416.273 495.77 417.09C493.887 417.877 491.957 418.545 489.99 419.09C488.019 419.664 486.016 420.118 483.99 420.45C481.929 420.81 479.842 420.991 477.75 420.99L477.77 417ZM259.14 452.86C259.14 433.96 372.86 436.8 372.86 452.86C372.771 467.882 366.741 482.258 356.087 492.849C345.434 503.439 331.022 509.384 316 509.384C300.978 509.384 286.566 503.439 275.913 492.849C265.259 482.258 259.229 467.882 259.14 452.86Z" fill="#592D3D"/>
<path d="M311 474C294.05 473 279.27 480.75 274.35 492.22C282.531 500.863 293.217 506.721 304.903 508.969C316.59 511.217 328.687 509.741 339.49 504.75C341.737 503.713 343.912 502.527 346 501.2C345.08 487.09 330.06 475.18 311 474Z" fill="#F28195"/>
<path d="M259.14 452.86C259.14 433.96 372.86 436.8 372.86 452.86C372.771 467.882 366.741 482.258 356.087 492.849C345.434 503.439 331.022 509.384 316 509.384C300.978 509.384 286.566 503.439 275.913 492.849C265.259 482.258 259.229 467.882 259.14 452.86Z" stroke="#592D3D" stroke-width="6" stroke-miterlimit="10"/>
<path d="M294.12 463.46C294.57 463.35 294.75 463.3 295.04 463.25L295.79 463.11C296.28 463.02 296.79 462.97 297.25 462.93C298.21 462.832 299.176 462.799 300.14 462.83C302.095 462.873 304.038 463.145 305.93 463.64C309.892 464.643 313.483 466.76 316.28 469.74C318.911 472.571 320.674 476.097 321.36 479.9C321.985 483.408 321.51 487.023 320 490.25C317.93 487.32 316.34 484.69 314.68 482.49C313.933 481.435 313.114 480.433 312.23 479.49C311.422 478.662 310.515 477.936 309.53 477.33C307.663 476.212 305.581 475.499 303.42 475.24C302.286 475.094 301.144 475.014 300 475C299.41 475 298.82 475 298.24 475.05L297.39 475.11H296.77L294.12 463.46Z" fill="#592D3D"/>
<path d="M374.73 230.34C361.87 254.34 314.73 267.78 310.9 261.76C306.61 255.03 348.75 206.44 324.8 155.62" fill="#F3AB98"/>
<path d="M600 173.85C594.9 168.75 568.94 175.68 542.81 173.62C517.207 138.848 483.935 110.444 445.576 90.6144C407.217 70.7846 364.804 60.0623 321.63 59.28C319.19 38.8 320.88 21.6 319.02 19.18C316.53 15.96 303.53 31.86 300.15 50.18C288.24 35.18 268.01 27.18 267.43 31.38C267.05 34.06 274.87 45.47 282.24 61.28C170.64 74.75 79.16 153.54 47.16 258.28C33.3 270.2 20.3 278.62 20.16 283.97C19.89 293.89 59.47 293.33 76.74 291.79V291.73C137.39 289.73 255.74 277.95 313.16 218.84C307.64 237.93 297.47 252 299.43 255C302.43 259.67 337.75 249.81 349.5 231.76C397.5 251.35 488.99 274.92 568.5 215.6L568.28 215.17C582.77 203.06 606.35 180.25 600 173.85Z" fill="#2D2C2C"/>
<path d="M542.85 179.62C537.45 179.86 532.19 179.73 526.85 179.48C521.51 179.23 516.26 178.81 510.98 178.22C508.34 177.93 505.7 177.62 503.07 177.22C500.44 176.82 497.8 176.5 495.18 175.99C489.841 175.03 484.619 173.509 479.6 171.45C484.846 170.107 490.2 169.23 495.6 168.83C498.23 168.61 500.86 168.46 503.49 168.35L511.37 168.01C516.62 167.79 521.86 167.67 527.09 167.56C532.32 167.45 537.57 167.44 542.71 167.56L542.85 179.62ZM52.6 261V261.39L52.48 261.92L52.2 263.03C51.99 263.78 51.77 264.55 51.54 265.32C51.07 266.87 50.54 268.46 50 270.07C49.46 271.68 48.94 273.35 48.23 275.07C47.8324 275.968 47.3713 276.837 46.85 277.67C46.2511 278.658 45.5579 279.586 44.78 280.44C43.0937 278.964 41.8131 277.081 41.06 274.97C40.7171 274.029 40.4627 273.058 40.3 272.07C40.09 271.07 39.99 270.07 39.87 269.12C39.6695 267.125 39.6695 265.115 39.87 263.12C39.968 262.111 40.128 261.109 40.35 260.12C40.47 259.62 40.6 259.12 40.76 258.61C40.837 258.349 40.927 258.092 41.03 257.84C41.13 257.56 41.21 257.36 41.39 256.94L52.6 261Z" fill="#592D3D"/>
<path d="M76.74 291.82V291.76C93.74 291.2 115.37 289.86 138.88 286.92C141.51 231 160.88 165.34 204.8 88.48L198 85.23C162.131 101.896 130.167 125.917 104.181 155.735C78.1946 185.552 58.7676 220.5 47.16 258.31C33.3 270.23 20.3 278.65 20.16 284C19.89 293.92 59.47 293.36 76.74 291.82Z" fill="#1E1E1E"/>
<path d="M600 173.85C594.9 168.75 568.94 175.68 542.81 173.62C517.207 138.848 483.935 110.444 445.576 90.6144C407.217 70.7846 364.804 60.0623 321.63 59.28C319.19 38.8 320.88 21.6 319.02 19.18C316.53 15.96 303.53 31.86 300.15 50.18C288.24 35.18 268.01 27.18 267.43 31.38C267.05 34.06 274.87 45.47 282.24 61.28C170.64 74.75 79.16 153.54 47.16 258.28C33.3 270.2 20.3 278.62 20.16 283.97C19.89 293.89 59.47 293.33 76.74 291.79V291.73C137.39 289.73 255.74 277.95 313.16 218.84C307.64 237.93 297.47 252 299.43 255C302.43 259.67 337.75 249.81 349.5 231.76C397.5 251.35 488.99 274.92 568.5 215.6L568.28 215.17C582.77 203.06 606.35 180.25 600 173.85Z" stroke="#592D3D" stroke-width="12" stroke-miterlimit="10"/>
<path d="M321.93 75.31C307.686 76.1305 293.502 77.7799 279.45 80.25C275.97 80.92 272.5 81.66 269.01 82.3C265.52 82.94 262.11 83.91 258.66 84.71L248.4 87.43C245 88.43 241.63 89.51 238.25 90.55C224.767 94.8985 211.594 100.154 198.82 106.28C185.985 112.51 173.545 119.524 161.57 127.28C172.236 117.552 184.01 109.114 196.65 102.14C209.299 95.077 222.618 89.2854 236.41 84.85C239.89 83.85 243.35 82.76 246.83 81.8C250.31 80.84 253.83 79.98 257.38 79.2C260.93 78.42 264.48 77.8 268.04 77.2C271.6 76.6 275.19 76.13 278.77 75.68C293.096 73.9177 307.576 73.7935 321.93 75.31Z" fill="white"/>
<path d="M416.89 291.57C427.933 288.755 439.119 286.535 450.4 284.92L447.74 285.27C460.92 283.53 474.28 283.02 487.49 284.79L484.83 284.43C488.1 284.89 491.37 285.43 494.65 285.85L491.99 285.49C501.944 286.854 511.794 288.896 521.47 291.6C526.47 292.99 532.57 289.87 533.77 284.6C534.424 282.042 534.059 279.331 532.754 277.037C531.448 274.742 529.303 273.044 526.77 272.3C515.423 269.192 503.861 266.926 492.18 265.52L494.84 265.88C483.808 263.922 472.585 263.268 461.4 263.93C450.276 264.66 439.218 266.181 428.31 268.48C422.69 269.61 417.11 270.91 411.55 272.28C406.47 273.53 402.93 279.54 404.55 284.58C405.294 287.113 406.992 289.258 409.286 290.564C411.581 291.87 414.292 292.234 416.85 291.58L416.89 291.57ZM102.14 291.6C111.724 288.819 121.501 286.75 131.39 285.41L128.73 285.77C145.786 283.537 163.061 283.563 180.11 285.85L177.45 285.5C187.395 286.856 197.235 288.894 206.9 291.6C211.9 293 218 289.87 219.2 284.6C219.854 282.042 219.489 279.331 218.184 277.037C216.878 274.742 214.733 273.044 212.2 272.3C197.757 268.282 182.951 265.703 168 264.6C143.993 263.037 119.897 265.646 96.78 272.31C94.2733 273.035 92.1314 274.678 90.78 276.91C89.4446 279.244 89.0852 282.012 89.78 284.61C91.43 289.72 96.69 293.15 102.08 291.61L102.14 291.6Z" fill="#592D3D"/>
<path opacity="0.15" d="M541 462.82C552.169 444.163 561.002 424.203 567.3 403.39C550.06 439.13 517.46 468.85 475.19 468.85C446.923 468.812 419.825 457.566 399.84 437.576C379.854 417.587 368.612 390.487 368.58 362.22C368.541 348.431 371.201 334.767 376.41 322H574C578.345 332.64 580.919 343.919 581.62 355.39C582.35 347.39 582.74 339.2 582.74 330.97C582.736 321.282 582.208 311.601 581.16 301.97H50.83C49.7818 311.601 49.2544 321.282 49.25 330.97C49.25 335.7 49.39 340.39 49.63 345.06C50.8995 337.152 53.0703 329.415 56.1 322H253.7C260.271 338.193 262.764 355.753 260.959 373.135C259.155 390.518 253.109 407.191 243.352 421.69C233.596 436.188 220.427 448.069 205.004 456.286C189.581 464.504 172.376 468.808 154.9 468.82C116.1 468.82 86.08 442.99 67.42 411.93C73.7116 430.398 82.0148 448.117 92.18 464.77C111.57 476.84 130.43 488.82 154.9 488.82C188.467 488.78 220.648 475.43 244.387 451.698C268.125 427.965 281.482 395.787 281.53 362.22C281.53 360.41 281.53 358.61 281.41 356.82C304.79 348.59 326.93 348.47 348.72 356.46C348.64 358.37 348.58 360.29 348.58 362.22C348.62 395.792 361.974 427.977 385.714 451.716C409.453 475.456 441.638 488.81 475.21 488.85C501 488.85 521 476.1 541 462.82ZM351.26 336.18C327.86 328.63 303.62 328.76 278.93 336.57C277.916 331.638 276.603 326.773 275 322H355.1C353.538 326.646 352.255 331.381 351.26 336.18Z" fill="black"/>
<path opacity="0.95" d="M49.59 300.82C49.59 300.82 50 333.05 50 351.02C50 415.43 90.48 467.65 154.9 467.65C174.593 467.641 193.963 462.647 211.207 453.135C228.45 443.623 243.005 429.901 253.517 413.248C264.028 396.595 270.152 377.552 271.321 357.894C272.489 338.235 268.664 318.601 260.2 300.82H49.59ZM369.91 300.82C357.13 327.671 355.084 358.388 364.189 386.697C373.295 415.006 392.865 438.771 418.903 453.136C436.147 462.648 455.517 467.641 475.21 467.65C539.63 467.65 582.75 415.43 582.75 351.02C582.75 333.02 580.52 300.82 580.52 300.82H369.91Z" fill="#1E1E1E"/>
<path opacity="0.25" d="M136 457.86L259.07 334.78C256.365 328.682 253.013 322.892 249.07 317.51L118.72 447.88C124.108 451.813 129.901 455.158 136 457.86Z" fill="white"/>
<path d="M271.86 338.53C301.38 326.53 330.39 326.11 358.86 338.53" stroke="#130F10" stroke-width="20" stroke-miterlimit="10"/>
<path d="M90.28 335.75C92.34 342.26 84.34 347.26 78.34 348.26C72.34 348.26 68.34 344.26 66.34 339.26C65.34 334.26 66.34 329.26 70.34 326.26C75.34 324.26 82.34 322.26 86.78 327.38C87.8911 328.472 88.773 329.775 89.374 331.212C89.975 332.649 90.283 334.192 90.28 335.75ZM101 331.93C100.39 336.26 94.39 336.26 93.39 332.26C93.39 329.26 94.39 328.26 97.23 328.16C98.2299 328.16 99.1888 328.557 99.8958 329.264C100.603 329.971 101 330.93 101 331.93Z" fill="white"/>
<path opacity="0.25" d="M461.19 449.92L567.47 343.64C566.896 339.854 566.091 336.107 565.06 332.42L450 447.51C453.678 448.539 457.415 449.344 461.19 449.92Z" fill="white"/>
<path d="M406.68 336.73C408.74 343.24 400.74 348.24 394.74 349.24C388.74 349.24 384.74 345.24 382.74 340.24C381.74 335.24 382.74 330.24 386.74 327.24C391.74 325.24 398.74 323.24 403.19 328.36C404.3 329.452 405.18 330.755 405.78 332.193C406.379 333.63 406.685 335.173 406.68 336.73ZM417.35 332.91C416.74 337.24 410.74 337.24 409.74 333.24C409.74 330.24 410.74 329.24 413.59 329.14C414.589 329.141 415.546 329.539 416.252 330.245C416.601 330.595 416.878 331.011 417.066 331.468C417.255 331.925 417.351 332.415 417.35 332.91Z" fill="white"/>
<path d="M239.14 300.81H390.97M49.59 300.82C49.59 300.82 49.25 332.51 50 351.02C52.6 415.38 90.48 467.65 154.9 467.65C174.593 467.641 193.963 462.647 211.207 453.135C228.45 443.623 243.005 429.901 253.517 413.248C264.028 396.595 270.152 377.552 271.321 357.894C272.489 338.235 268.664 318.601 260.2 300.82H49.59ZM369.91 300.82C357.13 327.671 355.084 358.388 364.189 386.697C373.295 415.006 392.865 438.771 418.903 453.136C436.147 462.648 455.517 467.641 475.21 467.65C539.63 467.65 582.75 416.12 582.75 351.71C582.75 333.71 580.52 300.82 580.52 300.82H369.91Z" stroke="#130F10" stroke-width="20" stroke-miterlimit="10"/>
</g>
<path d="M414.58 680.544C410.174 672.951 405.202 668.87 401.807 666.782C400.464 665.955 399.455 665.48 398.97 665.251L398.785 665.162C398.388 664.963 397.993 664.863 397.614 664.863C396.894 664.863 396.371 665.218 396.097 665.579C395.04 666.782 394.018 667.417 393.141 667.417C392.636 667.417 392.232 667.208 391.959 667.004C392.121 666.556 392.315 665.947 392.436 665.325C392.577 664.511 392.31 663.988 392.06 663.691C391.478 663 390.579 663 390.195 663C389.633 663 389.096 663.333 388.663 663.72L388.187 663.638C388.063 663.617 387.937 663.617 387.813 663.638L387.338 663.72C386.904 663.333 386.367 663 385.806 663C385.413 663 384.495 663 383.914 663.708C383.667 664.01 383.407 664.539 383.568 665.346C383.686 665.956 383.872 666.557 384.024 666.999C383.754 667.205 383.352 667.417 382.849 667.417C381.977 667.417 380.956 666.779 379.896 665.571C379.619 665.217 379.09 664.863 378.374 664.863C377.991 664.863 377.597 664.965 377.213 665.163L377.013 665.257C376.56 665.467 375.618 665.904 374.407 666.659C370.942 668.759 365.876 672.873 361.423 680.541C357.818 686.707 357.028 692.711 357 696.67L357 697.517C357.031 699.548 357.218 701.125 357.371 702.099C358.992 711.905 363.16 721.426 369.756 730.39C369.857 730.529 380.58 744.307 388 744.307C396.026 744.307 405.83 730.96 406.239 730.397C412.816 721.46 416.975 711.939 418.596 702.123C418.827 700.892 418.974 699.214 419 697.5V696.655C418.943 692.687 418.131 686.671 414.58 680.544Z" fill="white"/>
<path d="M388.16 742.087C393.617 742.301 404.011 730.813 409.559 720.261C413.972 711.867 415.44 706.201 415.658 696.722L360.234 696.614C360.645 707.378 362.615 713.867 368.259 723.042C373.887 732.193 380.348 741.338 388.16 742.087Z" fill="#FFDF1C"/>
<path d="M388.001 742.619C382.025 742.619 372.642 731.572 371.207 729.592C362.165 717.305 360.07 706.656 359.409 702.665C359.266 701.746 359.093 700.253 359.065 698.387V697.584C359.093 693.622 359.926 688.111 363.199 682.513C367.533 675.049 372.413 671.26 375.397 669.451C376.776 668.59 377.752 668.188 378.038 668.045C378.93 667.585 379.331 668.16 379.331 668.16C383.034 672.407 385.388 669.135 385.388 669.135C385.388 669.135 384.957 668.102 384.757 667.069C384.556 666.063 385.474 666.063 385.876 666.063C386.307 666.063 386.996 666.84 386.996 666.84L388.001 666.667L389.005 666.84C389.005 666.84 389.694 666.063 390.125 666.063C390.527 666.063 391.417 666.063 391.244 667.069C391.044 668.102 390.583 669.135 390.583 669.135C390.583 669.135 392.967 672.407 396.671 668.16C396.671 668.16 397.043 667.585 397.961 668.045C398.248 668.188 399.311 668.647 400.804 669.566C403.789 671.404 408.554 675.193 412.802 682.513C416.046 688.111 416.878 693.593 416.936 697.583V698.387C416.908 700.253 416.735 701.746 416.563 702.664C415.903 706.655 413.836 717.305 404.794 729.592C403.416 731.486 394.784 742.619 388.001 742.619ZM400.804 672.351C400.057 671.289 399.11 670.169 397.933 669.049L397.818 669.279C397.818 669.279 399.311 670.772 400.804 673.011C402.325 675.28 403.817 678.293 403.76 681.307C403.76 681.307 404.248 677.288 400.804 672.351ZM375.397 673.011C376.891 670.772 378.384 669.279 378.384 669.279L378.24 669.049C377.063 670.17 376.145 671.289 375.397 672.351C371.925 677.288 372.412 681.308 372.412 681.308C372.355 678.293 373.876 675.28 375.397 673.011ZM415.214 697.124H409.53V719.262C414.168 709.402 415.848 699.991 415.214 697.124ZM363.025 691.038H412.975C412.486 690.12 411.94 689.202 411.339 688.254C407.033 681.738 403.33 682.685 403.33 682.685C402.497 682.082 401.664 681.709 400.804 681.508C397.043 680.676 393.339 683.489 392.967 687.25C392.967 687.25 393.482 687.939 393.023 688.34C392.565 688.713 392.392 688.398 392.392 688.398L391.158 687.163C389.005 687.163 387.971 689.833 387.971 689.833C387.971 689.833 386.996 687.163 384.814 687.163L383.609 688.398C383.609 688.398 383.407 688.713 382.977 688.34C382.517 687.938 383.034 687.25 383.034 687.25C382.662 683.546 379.073 680.761 375.397 681.48C374.478 681.651 373.561 682.053 372.671 682.685C372.671 682.685 368.939 681.738 364.662 688.254C364.031 689.202 363.514 690.149 363.025 691.038ZM366.816 719.783V697.124H360.844C359.961 702.839 362.764 711.626 366.816 719.783ZM379.015 736.104V697.124H372.901V729.493C374.808 731.935 376.901 734.212 379.015 736.104ZM391.216 740.368V718.705C394.153 717.474 396.228 714.561 396.228 711.163C396.228 707.741 394.153 704.823 391.216 703.591V697.124H385.101V703.526C382.065 704.719 379.918 707.679 379.918 711.163C379.918 714.622 382.064 717.578 385.101 718.77V740.322C386.09 740.779 387.041 741.087 387.94 741.218C388.94 741.218 390.045 740.915 391.216 740.368ZM397.329 697.124V735.97C399.431 734.014 401.524 731.664 403.416 729.196V697.124H397.329Z" fill="black"/>
<path d="M409.531 697.125V719.263C409.531 719.263 409.028 720.356 408.694 720.98C406.953 723.998 405.174 726.875 403.419 729.19C403.418 729.191 403.417 729.192 403.417 729.193V697.125H409.531ZM391.217 697.125V703.591C394.154 704.823 396.227 707.74 396.227 711.162C396.227 714.562 394.154 717.474 391.217 718.705V740.338C392.975 739.504 395.045 738.079 397.305 735.993C397.313 735.985 397.322 735.976 397.33 735.969V697.125H391.217ZM379.015 697.125V736.083C379.263 736.308 379.511 736.548 379.759 736.761C381.673 738.412 383.444 739.564 385.102 740.309V718.769C382.064 717.578 379.919 714.622 379.919 711.162C379.919 707.679 382.066 704.719 385.102 703.527V697.125H379.015ZM366.815 697.125V719.747C366.829 719.773 366.841 719.8 366.854 719.826C367.515 721.11 368.227 722.436 369.066 723.803C370.236 725.707 371.503 727.65 372.901 729.48V697.125H366.815Z" fill="#EE3524"/>
<path d="M388.086 702.366C383.242 702.366 379.319 706.29 379.319 711.162C379.319 716.006 383.242 719.93 388.086 719.93C392.902 719.93 396.825 716.005 396.825 711.162C396.825 706.29 392.904 702.366 388.086 702.366Z" fill="#B23428"/>
<path d="M389.82 718.802C389.188 718.511 388.674 718.031 388.392 717.299C388.681 717.208 388.962 717.082 389.222 716.927C390.953 715.905 391.127 713.886 390.271 712.234C390.241 712.177 390.205 712.116 390.17 712.058C391.164 708.959 389.449 707.587 388.923 707.25C389.249 706.168 390.107 705.593 391.391 705.771C393.28 707.042 393.795 710.05 393.774 712.08C393.746 717.033 390.646 718.447 389.82 718.802ZM381.481 715.971C382.328 717.133 383.474 718.063 384.806 718.647C384.482 718.176 384.193 717.62 384.093 717.124C383.393 716.355 382.541 715.792 381.481 715.971ZM379.921 711.409C379.967 712.959 380.449 714.397 381.242 715.613C382.419 715.341 383.517 715.881 384.314 716.762C384.747 716.414 386.018 715.701 388.174 716.948C390.369 716.337 390.857 714.233 389.917 712.418L389.862 712.32C389.018 712.577 384.856 713.644 379.921 711.409ZM381.213 706.722C380.426 707.95 379.955 709.404 379.92 710.97C382.614 712.227 385.082 712.467 386.887 712.387C388.268 712.327 389.343 712.051 389.796 711.915C390.289 710.347 390.183 708.498 388.687 707.573C387.608 708.063 386.341 708.235 385.335 707.521C383.824 708.241 382.326 708.049 381.271 706.793L381.213 706.722ZM387.79 702.969C385.177 703.063 382.877 704.38 381.45 706.373C381.483 706.421 381.526 706.477 381.576 706.537C382.549 707.695 383.808 707.765 385.145 707.166C385.107 706.632 385.214 704.893 387.79 702.969ZM392.837 704.503C391.596 703.605 390.096 703.049 388.472 702.973C387.214 703.831 385.621 705.276 385.54 706.914C385.534 707.03 385.539 707.119 385.545 707.175C385.592 707.21 385.641 707.246 385.688 707.273C386.564 707.795 387.632 707.636 388.52 707.206C388.881 705.945 389.915 705.151 391.312 705.323L391.422 705.219C391.82 704.852 392.31 704.585 392.837 704.503ZM390.376 719.003C393.752 718.01 396.227 714.876 396.227 711.162C396.227 708.635 395.097 706.383 393.322 704.883C392.717 704.828 392.142 705.1 391.704 705.505C392.356 705.981 394.22 707.726 394.171 712.082C394.145 716.698 391.547 718.407 390.351 718.996L390.376 719.003ZM388.086 719.331C388.63 719.331 389.162 719.277 389.676 719.174C388.941 718.842 388.343 718.283 388.04 717.5C388.008 717.415 387.986 717.344 387.971 717.293C386.839 716.652 385.501 716.277 384.512 717.136C384.541 717.243 384.587 717.386 384.658 717.559C384.807 717.922 385.068 718.407 385.515 718.918C386.325 719.187 387.188 719.331 388.086 719.331Z" fill="#D18816"/>
<path d="M363.026 691.038H412.975C412.975 691.038 414.885 694.756 415.213 697.125H360.852C360.852 697.125 361.542 693.337 363.026 691.038Z" fill="#0097D7"/>
<path d="M411.12 695.413H412.068V696.217H411.12V695.413ZM408.652 694.523H410.689V693.833H408.652V692.916H411.006V692.197H407.705V696.217H408.652V694.523ZM405.609 696.217H406.557V695.413H405.609V696.217ZM402.509 696.331C403.026 696.331 403.456 696.188 403.8 695.929C404.145 695.642 404.346 695.298 404.432 694.868H403.485C403.427 695.068 403.342 695.212 403.227 695.327C403.084 695.529 402.824 695.614 402.481 695.614C402.164 695.614 401.905 695.499 401.704 695.27C401.475 695.04 401.389 694.725 401.389 694.264C401.389 693.805 401.475 693.461 401.677 693.203C401.877 692.972 402.164 692.829 402.481 692.829C402.824 692.829 403.084 692.916 403.254 693.088C403.342 693.203 403.427 693.346 403.485 693.547H404.432C404.432 693.289 404.317 693.03 404.117 692.801C403.772 692.341 403.227 692.112 402.452 692.112C401.877 692.112 401.418 692.284 401.045 692.629C400.614 693.001 400.384 693.547 400.384 694.236C400.384 694.897 400.586 695.413 400.959 695.786C401.331 696.159 401.848 696.331 402.509 696.331ZM391.745 696.217H392.692V692.198H391.745V696.217ZM388.643 696.331C389.16 696.331 389.59 696.188 389.936 695.929C390.281 695.642 390.482 695.298 390.567 694.868H389.62C389.563 695.068 389.476 695.212 389.39 695.327C389.217 695.529 388.958 695.614 388.615 695.614C388.3 695.614 388.042 695.499 387.84 695.27C387.611 695.04 387.524 694.725 387.524 694.264C387.524 693.805 387.611 693.461 387.811 693.203C388.012 692.972 388.3 692.829 388.615 692.829C388.958 692.829 389.217 692.916 389.39 693.088C389.476 693.203 389.563 693.346 389.62 693.547H390.567C390.567 693.289 390.452 693.03 390.251 692.801C389.907 692.341 389.361 692.112 388.586 692.112C388.012 692.112 387.553 692.284 387.18 692.629C386.749 693.001 386.52 693.547 386.52 694.236C386.52 694.897 386.721 695.413 387.094 695.786C387.467 696.159 387.983 696.331 388.643 696.331ZM382.557 693.345L384.453 696.217H385.429V692.198H384.539V695.011L382.673 692.198H381.669V696.217H382.557L382.557 693.345ZM380.577 695.499H378.08V694.438H380.262V693.748H378.08V692.916H380.462V692.197H377.133V696.217H380.577V695.499ZM376.185 695.499H373.889V692.197H372.913V696.217H376.185V695.499ZM365.564 696.217H366.454L368.032 692.198H367.028L366.023 695.241L365.017 692.198H363.985L365.564 696.217ZM370.617 692.198L372.223 696.217H371.19L370.903 695.384H370.043H369.181L368.865 696.217H367.889L369.525 692.198H370.043H370.617ZM370.645 694.695L370.043 693.116L369.438 694.695H370.043H370.645ZM396.25 692.198L397.887 696.217H396.824L396.538 695.384H395.677H394.845L394.528 696.217H393.523L395.16 692.198H395.677H396.25ZM396.279 694.695L395.706 693.116L395.103 694.695H395.677H396.279Z" fill="white"/>
<path d="M226.728 688.166C226.407 688.215 226.098 689.398 225.477 690.015C225.023 690.459 224.456 690.432 224.155 690.981C224.041 691.187 224.078 691.537 223.948 691.874C223.695 692.547 222.802 692.608 222.802 693.341C222.799 694.133 223.546 694.285 224.194 694.847C224.699 695.299 224.748 695.611 225.36 695.831C225.882 696.008 226.658 695.428 227.358 695.636C227.932 695.807 228.482 695.931 228.612 696.521C228.726 697.065 228.604 697.908 227.908 697.81C227.673 697.784 226.655 697.441 225.404 697.574C223.895 697.746 222.174 698.238 222.005 699.92C221.913 700.861 223.075 701.969 224.198 701.744C224.975 701.591 224.607 700.675 225.031 700.23C225.585 699.661 228.726 702.22 231.647 702.22C232.876 702.22 233.79 701.909 234.698 700.958C234.783 700.885 234.887 700.729 235.018 700.72C235.141 700.729 235.358 700.851 235.429 700.904C237.781 702.794 239.558 706.585 248.202 706.63C249.417 706.636 250.803 707.217 251.933 708.249C252.942 709.181 253.532 710.632 254.104 712.103C254.969 714.312 256.52 716.46 258.87 718.851C258.999 718.979 260.934 720.483 261.088 720.596C261.113 720.611 261.255 720.951 261.205 721.141C261.148 722.574 260.94 726.742 264.047 726.931C264.807 726.969 264.608 726.435 264.608 726.067C264.606 725.342 264.473 724.62 264.856 723.877C265.38 722.855 263.746 722.384 263.794 720.174C263.828 718.526 262.444 718.807 261.741 717.552C261.337 716.824 260.977 716.438 261.003 715.549C261.161 710.542 259.937 707.253 259.327 706.445C258.852 705.835 258.458 705.592 258.894 705.31C261.486 703.597 262.075 702.003 262.075 702.003C263.454 698.762 264.694 695.801 266.404 694.498C266.748 694.229 267.631 693.57 268.174 693.31C269.769 692.558 270.609 692.103 271.072 691.652C271.806 690.937 272.385 689.446 271.682 688.543C270.808 687.428 269.296 688.313 268.629 688.708C263.862 691.537 263.159 696.529 261.508 699.395C260.191 701.685 258.049 703.367 256.134 703.504C254.698 703.611 253.15 703.321 251.609 702.644C247.861 701.001 245.81 698.879 245.326 698.504C244.319 697.727 236.502 690.053 230.169 689.74C230.169 689.74 229.383 688.166 229.185 688.14C228.722 688.081 228.247 689.08 227.908 689.196C227.588 689.303 227.051 688.113 226.728 688.166Z" fill="white"/>
</g>
<defs>
<clipPath id="clip0_1_2">
<rect width="632" height="821" fill="white"/>
</clipPath>
</defs>
</svg>
